PathFileType	4	(X/Y/Z)	C:/Users/alexw/Dropbox/ABI/BIOMENG 771 Files/BIOMENG_771/KinematicsLab/Right.trc	
DataRate	CameraRate	NumFrames	NumMarkers	Units	OrigDataRate	OrigDataStartFrame	OrigNumFrames	
120.00	120.00	35	8	mm	120.00	633	1623	
Frame#	Time	RAsis			LAsis			RPsis			LPsis			RThighInferior			RThighLateral			RPatella			RThighSuperior			
		X1	Y1	Z1	X2	Y2	Z2	X3	Y3	Z3	X4	Y4	Z4	X5	Y5	Z5	X6	Y6	Z6	X7	Y7	Z7	X8	Y8	Z8	

609	5.067	-397.09512	212.68755	1053.43469	-161.49498	106.07066	989.29340	-220.23743	355.72412	969.74408	-167.95203	330.89401	967.94470	-479.37112	72.02455	641.47760	-444.05545	70.35128	738.78204	-454.13840	10.43843	560.59863	-455.23553	216.68315	840.16681 
610	5.075	-396.76236	212.13156	1053.78198	-160.83562	106.29688	989.14105	-220.36304	355.93164	970.21381	-168.09200	331.29929	968.39349	-480.98380	71.61774	643.25427	-445.16223	70.33962	740.04156	-456.56143	9.93138	561.68329	-455.52945	217.00230	841.02765 
611	5.083	-396.31265	211.64624	1054.16760	-160.21355	106.64739	988.90845	-220.43883	356.12402	970.66071	-167.98186	331.94839	969.08185	-482.79105	71.44903	644.89209	-446.60397	70.46918	741.58429	-459.26941	9.52363	562.90662	-456.05524	217.58800	842.05011 
612	5.092	-395.72864	211.10309	1054.54126	-159.64896	106.99525	988.71405	-220.55516	356.34689	971.22900	-167.97176	332.42343	969.65906	-484.98416	71.22594	646.65985	-448.35382	70.66077	743.11621	-462.37033	8.66243	564.39453	-456.60934	218.11580	842.74390 
613	5.100	-395.23553	210.64311	1055.06860	-158.96559	107.37485	988.59662	-220.63197	356.71082	971.96118	-168.09917	332.86600	970.18457	-487.27258	70.91167	648.43225	-450.21487	70.73897	744.75385	-465.47495	7.98329	566.14862	-457.26563	218.91272	843.60559 
614	5.108	-394.78128	210.05719	1055.61328	-158.25182	107.81956	988.43781	-220.69691	356.99014	972.74481	-167.88916	333.64502	971.02612	-489.86411	70.60216	650.45819	-452.49573	70.80655	746.45770	-468.88037	7.21739	567.85675	-457.91525	219.69551	844.40363 
615	5.117	-394.18695	209.58806	1056.09534	-157.53236	108.31600	988.29901	-220.37794	357.65875	973.39557	-167.90935	334.28937	971.69208	-492.70865	70.57723	652.50220	-454.77362	71.08790	748.36835	-472.56970	6.59648	569.82880	-458.74722	220.57994	845.32843 
616	5.125	-393.70941	209.03055	1056.59448	-156.78140	108.78185	988.10419	-221.09833	357.12640	973.39606	-168.60263	334.04483	971.76398	-495.66608	70.32439	654.68958	-457.34253	71.15943	750.44757	-476.29880	5.93836	571.83350	-459.38586	221.26883	846.38489 
617	5.133	-392.96371	208.39561	1057.21497	-156.07625	109.23097	987.89728	-220.63493	358.18051	974.88385	-168.30489	335.35458	973.05396	-498.67322	70.09416	656.89374	-459.90021	71.30391	752.48444	-480.29135	5.36153	574.03284	-460.96109	222.62248	848.56995 
618	5.142	-392.25787	207.72493	1057.81848	-155.27225	109.67045	987.73981	-220.70045	358.53583	975.51013	-168.31247	335.89923	973.66846	-501.98254	70.02207	659.22461	-462.56662	71.38174	754.48639	-484.40674	4.73928	576.30249	-461.03864	222.54990	849.44916 
619	5.150	-391.66470	207.13202	1058.42737	-154.41722	110.16581	987.50610	-221.90173	357.76489	975.43390	-168.52405	336.34708	974.14575	-505.27127	69.77944	661.76086	-465.17490	71.36618	756.67914	-488.65936	4.35996	578.47650	-460.83313	222.54230	850.48041 
620	5.158	-391.00891	206.44890	1059.21667	-153.51729	110.64542	987.23602	-222.16235	358.28680	976.17389	-168.19748	337.35782	975.10040	-508.56488	69.52957	664.30573	-467.80249	71.25665	758.97998	-493.01593	3.87953	581.01624	-460.18381	221.03403	851.95551 
621	5.167	-390.40048	205.91901	1059.87317	-152.79962	111.01589	987.01459	-221.64705	359.41263	977.59515	-168.19899	338.00507	975.88580	-512.07819	69.44330	666.86243	-470.70035	71.32267	761.24713	-497.22357	3.28146	583.64832	-460.15735	220.84198	853.21796 
622	5.175	-389.50739	205.14398	1060.70215	-152.11578	111.41975	986.76959	-220.94341	360.27466	978.79535	-168.42400	338.45184	976.49640	-515.48834	69.11758	669.57556	-473.12756	71.36915	763.54712	-501.78802	3.08725	586.26868	-460.45413	220.91032	854.48840 
623	5.183	-388.74545	204.42087	1061.39893	-151.25262	111.85667	986.56378	-221.12761	360.52283	979.53912	-168.66856	338.93701	977.21289	-518.88190	69.01232	672.40332	-475.68356	71.43439	765.87231	-506.16663	2.81589	588.84058	-460.82877	221.09453	855.67706 
624	5.192	-387.89276	203.65587	1062.28125	-150.39838	112.21318	986.38678	-221.99330	360.40421	980.16052	-168.93686	339.35681	977.81079	-522.59973	69.08310	675.45410	-478.16956	71.47482	768.42859	-510.78229	2.74706	591.65607	-460.72083	221.12013	857.03156 
625	5.200	-387.04007	203.10924	1063.02112	-149.58984	112.62910	986.18866	-222.13293	360.72214	981.10706	-169.13187	339.73740	978.51202	-526.20874	68.90710	678.46454	-480.79257	71.68797	770.93481	-515.23206	2.76717	594.61066	-460.75656	221.33412	858.29529 
626	5.208	-386.04495	202.38930	1063.95471	-148.83862	113.01532	985.94879	-222.26907	360.93204	981.94867	-169.13553	340.10373	979.16711	-529.73999	69.04988	681.56152	-483.07837	71.68085	773.50256	-519.86206	2.96990	597.63806	-460.61353	221.41876	859.66333 
627	5.217	-385.02145	201.68103	1064.77820	-148.29469	113.36972	985.38043	-222.36676	361.03964	982.88696	-169.17772	340.54663	979.84973	-533.25769	69.27020	684.68744	-485.48044	71.85916	775.92230	-524.42084	3.23089	600.74097	-460.66641	221.53603	861.24426 
628	5.225	-384.09634	200.96872	1065.62976	-147.75616	113.58073	985.02393	-222.50832	361.33685	983.99652	-169.21182	340.92850	980.58112	-536.71167	69.67481	687.96869	-487.87912	72.22994	778.79950	-529.10162	3.63914	603.91656	-466.91437	223.85558	867.83606 
629	5.233	-383.16391	200.38904	1066.69592	-147.10342	113.65690	984.83295	-222.65834	361.54120	984.95721	-169.26898	341.28876	981.30341	-540.29578	70.18922	691.36060	-490.08453	72.63396	781.47583	-533.66876	4.26866	607.16199	-469.39078	224.62929	871.53271 
630	5.242	-382.05716	199.83931	1067.61975	-146.41727	113.73501	984.75458	-222.51819	361.73514	986.07416	-169.22064	341.64368	981.96643	-543.58252	70.88082	694.65985	-492.26059	72.96446	784.09082	-538.30981	5.08788	610.54944	-469.61169	224.63850	873.89923 
631	5.250	-380.82056	199.13029	1068.59937	-145.57660	113.86166	984.73511	-222.33078	362.02383	987.17828	-169.39639	341.80734	982.58289	-547.27448	71.55176	698.21033	-494.65942	73.60468	786.83124	-543.10498	6.09519	613.94958	-470.38345	224.81906	876.08630 
632	5.258	-379.58124	198.55977	1069.57080	-144.59190	114.07277	984.71680	-222.27408	362.17624	988.30286	-169.49683	341.90274	983.15027	-550.98596	72.53123	701.89789	-496.80606	74.27521	789.59863	-547.69757	7.04615	617.49829	-470.42609	225.19501	878.84644 
633	5.267	-378.51413	198.07446	1070.60522	-143.72816	114.30804	984.61609	-222.22197	362.23691	989.39459	-169.09627	342.33374	984.15448	-554.25977	73.36266	705.23322	-498.93579	75.07565	792.42206	-552.50806	8.13192	621.04877	-470.98993	225.61626	881.43829 
634	5.275	-377.44302	197.54659	1071.61560	-142.76813	114.72484	984.34009	-222.02335	362.41415	990.49854	-168.93153	342.59894	984.92914	-557.69830	74.41213	708.93988	-501.37112	75.95370	795.25012	-557.08130	9.33174	624.70929	-471.69177	226.19937	884.41998 
635	5.283	-376.15799	196.89252	1072.59741	-141.92583	115.15401	983.94397	-221.82545	362.56628	991.44647	-169.24553	342.30176	984.94623	-561.05371	75.70264	712.57843	-503.45148	76.82626	798.11859	-561.83215	10.66843	628.38287	-472.33572	226.70332	887.27161 
636	5.292	-374.94785	196.25250	1073.55017	-141.17229	115.23125	983.74805	-221.58551	362.61078	992.45428	-169.11456	342.41882	985.59534	-564.27167	76.97366	716.38916	-505.52347	77.65508	801.12012	-566.46234	12.04165	632.36969	-473.12622	227.48018	890.09827 
637	5.300	-373.81522	195.74686	1074.57153	-140.26833	115.27180	983.54596	-220.72466	363.40799	993.69366	-168.66090	342.62888	986.32910	-567.63361	78.34434	720.31403	-507.67349	78.74405	804.30463	-571.11066	13.50024	636.47961	-473.57022	228.13449	893.20520 
638	5.308	-372.58310	195.37488	1075.41797	-139.52570	115.31096	983.38983	-220.62636	363.18359	994.96558	-168.50107	342.76489	987.22083	-570.74579	79.70502	724.17651	-509.71234	79.59235	807.38513	-575.86432	15.03185	640.46875	-473.89783	228.65283	896.11060 
639	5.317	-371.29440	194.91394	1076.42065	-138.83646	115.32807	983.24805	-220.37120	363.27866	996.03638	-168.19261	342.95267	987.97443	-574.03680	81.08442	728.30713	-512.00592	80.62710	810.68036	-580.35352	16.42916	644.84991	-474.51089	229.42413	899.16144 
640	5.325	-370.09842	194.36674	1077.33435	-138.00772	115.36442	983.12048	-219.85445	363.64597	997.02448	-167.77591	343.08990	988.62170	-577.17810	82.28325	732.48584	-513.95398	81.49615	813.89368	-584.81519	17.84748	649.16028	-474.87366	230.07272	902.38910 
641	5.333	-368.89355	193.90486	1078.18347	-137.18687	115.38573	982.93427	-219.42961	363.63110	998.43036	-167.31432	343.27695	989.20074	-580.22223	83.67366	736.61987	-516.06036	82.59217	817.30322	-589.36096	19.32103	653.65063	-475.26581	230.76210	905.54810 
642	5.342	-367.75400	193.62427	1079.20752	-136.57130	115.43396	982.77771	-218.87634	363.78464	999.48566	-166.89874	343.49356	989.98083	-583.43201	84.98567	741.01593	-518.02057	83.43818	820.73798	-593.79626	20.78363	658.16779	-475.56952	231.34769	908.56299 
643	5.350	-366.75363	193.34401	1080.21973	-135.88622	115.50034	982.58466	-218.38440	363.79318	1000.68549	-166.31737	343.62381	990.98627	-586.39294	86.29044	745.38879	-520.00952	84.53138	824.20502	-598.14685	22.27242	663.03833	-476.15891	232.10677	911.85773 
